HIERARCHY
ROOT newVegas:Hips
{
	OFFSET 0.000000 96.479958 0.000000
	CHANNELS 6 Xposition Yposition Zposition Xrotation Yrotation Zrotation
	JOINT newVegas:Pelvis
	{
		OFFSET 0.000000 0.000000 0.000000
		CHANNELS 3 Xrotation Yrotation Zrotation
		JOINT newVegas:LeftUpLeg
		{
			OFFSET 18.735201 -5.666702 -4.541200
			CHANNELS 3 Xrotation Yrotation Zrotation
			JOINT newVegas:LeftLeg
			{
				OFFSET -0.021200 -31.938179 0.493100
				CHANNELS 3 Xrotation Yrotation Zrotation
				JOINT newVegas:LeftFoot
				{
					OFFSET 0.021200 -31.938179 -4.336299
					CHANNELS 3 Xrotation Yrotation Zrotation
					JOINT newVegas:LeftToeBase
					{
						OFFSET 0.943001 -26.722000 15.023500
						CHANNELS 3 Xrotation Yrotation Zrotation
						End Site
						{
							OFFSET 0.000000 30.670183 0.000000
						}
					}
				}
				JOINT newVegas:Left_PantLeg
				{
					OFFSET 0.663870 -9.044666 -1.108900
					CHANNELS 3 Xrotation Yrotation Zrotation
					End Site
					{
						OFFSET 1.415995 20.635357 0.000000
					}
				}
			}
		}
		JOINT newVegas:RightUpLeg
		{
			OFFSET -18.735201 -5.666702 -4.541200
			CHANNELS 3 Xrotation Yrotation Zrotation
			JOINT newVegas:RightLeg
			{
				OFFSET 0.018946 -31.938133 0.493100
				CHANNELS 3 Xrotation Yrotation Zrotation
				JOINT newVegas:RightFoot
				{
					OFFSET -0.018946 -31.938126 -4.336299
					CHANNELS 3 Xrotation Yrotation Zrotation
					JOINT newVegas:RightToeBase
					{
						OFFSET -0.943001 -26.722004 15.023500
						CHANNELS 3 Xrotation Yrotation Zrotation
						End Site
						{
							OFFSET 0.000000 30.670187 0.000000
						}
					}
				}
				JOINT newVegas:Right_PantLeg
				{
					OFFSET -0.661674 -9.044716 -1.108900
					CHANNELS 3 Xrotation Yrotation Zrotation
					End Site
					{
						OFFSET -1.415958 20.635269 0.000000
					}
				}
			}
		}
	}
	JOINT newVegas:Spine
	{
		OFFSET 0.000000 10.199997 -0.299500
		CHANNELS 3 Xrotation Yrotation Zrotation
		JOINT newVegas:Spine1
		{
			OFFSET 0.000000 11.900002 -1.516600
			CHANNELS 3 Xrotation Yrotation Zrotation
			JOINT newVegas:Spine2
			{
				OFFSET 0.000000 13.600006 -2.842500
				CHANNELS 3 Xrotation Yrotation Zrotation
				JOINT newVegas:Neck
				{
					OFFSET 0.000000 9.624100 -2.890100
					CHANNELS 3 Xrotation Yrotation Zrotation
					JOINT newVegas:Head
					{
						OFFSET 0.000000 14.068802 -1.351900
						CHANNELS 3 Xrotation Yrotation Zrotation
						JOINT newVegas:Hair_Back
						{
							OFFSET 0.000000 3.231903 -17.524799
							CHANNELS 3 Xrotation Yrotation Zrotation
							End Site
							{
								OFFSET 0.000000 19.849884 0.000000
							}
						}
						JOINT newVegas:Hair_Front
						{
							OFFSET 0.000000 31.260406 4.573800
							CHANNELS 3 Xrotation Yrotation Zrotation
							JOINT newVegas:Hair_Front1
							{
								OFFSET 0.000000 2.284103 11.993300
								CHANNELS 3 Xrotation Yrotation Zrotation
								JOINT newVegas:Hair_Front2
								{
									OFFSET 0.000000 2.284103 11.993300
									CHANNELS 3 Xrotation Yrotation Zrotation
									End Site
									{
										OFFSET 0.000000 12.208862 0.000000
									}
								}
							}
						}
						JOINT newVegas:Jowel
						{
							OFFSET 0.000000 -7.458206 6.864100
							CHANNELS 3 Xrotation Yrotation Zrotation
							End Site
							{
								OFFSET 0.000000 19.849884 0.000000
							}
						}
					}
				}
				JOINT newVegas:LeftShoulder
				{
					OFFSET 15.263000 10.923401 -0.547700
					CHANNELS 3 Xrotation Yrotation Zrotation
					JOINT newVegas:LeftArm
					{
						OFFSET 25.438599 -2.830597 -13.032500
						CHANNELS 3 Xrotation Yrotation Zrotation
						JOINT newVegas:LeftForeArm
						{
							OFFSET 29.960503 0.000000 0.000000
							CHANNELS 3 Xrotation Yrotation Zrotation
							JOINT newVegas:LeftHand
							{
								OFFSET 27.849251 0.000000 0.000000
								CHANNELS 3 Xrotation Yrotation Zrotation
								JOINT newVegas:LeftHandThumb1
								{
									OFFSET 4.487587 -3.305161 6.305391
									CHANNELS 3 Xrotation Yrotation Zrotation
									JOINT newVegas:LeftHandThumb2
									{
										OFFSET 5.480453 -3.164139 3.164143
										CHANNELS 3 Xrotation Yrotation Zrotation
										JOINT newVegas:LeftHandThumb3
										{
											OFFSET 5.159721 -2.978973 2.978967
											CHANNELS 3 Xrotation Yrotation Zrotation
											End Site
											{
												OFFSET 2.494507 5.926697 1.738678
											}
										}
									}
								}
								JOINT newVegas:LeftHandIndex1
								{
									OFFSET 18.578728 -0.527832 5.208049
									CHANNELS 3 Xrotation Yrotation Zrotation
									JOINT newVegas:LeftHandIndex2
									{
										OFFSET 3.192009 0.000000 0.000000
										CHANNELS 3 Xrotation Yrotation Zrotation
										JOINT newVegas:LeftHandIndex3
										{
											OFFSET 3.835129 0.000000 0.000000
											CHANNELS 3 Xrotation Yrotation Zrotation
											End Site
											{
												OFFSET -0.034599 3.816971 0.371180
											}
										}
									}
								}
								JOINT newVegas:LeftHandMiddle1
								{
									OFFSET 18.476105 0.000000 0.000000
									CHANNELS 3 Xrotation Yrotation Zrotation
									JOINT newVegas:LeftHandMiddle2
									{
										OFFSET 3.324875 0.000000 0.000000
										CHANNELS 3 Xrotation Yrotation Zrotation
										JOINT newVegas:LeftHandMiddle3
										{
											OFFSET 4.596550 0.000000 0.000000
											CHANNELS 3 Xrotation Yrotation Zrotation
											End Site
											{
												OFFSET 0.057701 4.578827 0.399218
											}
										}
									}
								}
								JOINT newVegas:LeftHandRing1
								{
									OFFSET 17.732719 0.121887 -4.201567
									CHANNELS 3 Xrotation Yrotation Zrotation
									JOINT newVegas:LeftHandRing2
									{
										OFFSET 2.733170 0.000000 0.000000
										CHANNELS 3 Xrotation Yrotation Zrotation
										JOINT newVegas:LeftHandRing3
										{
											OFFSET 3.178268 0.000000 0.000000
											CHANNELS 3 Xrotation Yrotation Zrotation
											End Site
											{
												OFFSET 0.119102 3.170624 0.185394
											}
										}
									}
								}
								JOINT newVegas:LeftHandPinky1
								{
									OFFSET 15.989624 -0.606689 -7.535461
									CHANNELS 3 Xrotation Yrotation Zrotation
									JOINT newVegas:LeftHandPinky2
									{
										OFFSET 2.538986 0.000000 0.000000
										CHANNELS 3 Xrotation Yrotation Zrotation
										JOINT newVegas:LeftHandPinky3
										{
											OFFSET 2.593102 0.000000 0.000000
											CHANNELS 3 Xrotation Yrotation Zrotation
											End Site
											{
												OFFSET -0.150902 2.584198 0.152708
											}
										}
									}
								}
							}
							JOINT newVegas:Left_Sleeve
							{
								OFFSET 0.267448 -0.649796 0.577675
								CHANNELS 3 Xrotation Yrotation Zrotation
								End Site
								{
									OFFSET 0.000000 15.991241 0.000000
								}
							}
							JOINT newVegas:Left_CapeC
							{
								OFFSET 15.715958 -8.608795 -6.935905
								CHANNELS 3 Xrotation Yrotation Zrotation
								JOINT newVegas:Left_CapeC1
								{
									OFFSET 0.000000 -8.688499 0.000000
									CHANNELS 3 Xrotation Yrotation Zrotation
									End Site
									{
										OFFSET 0.000000 8.688499 0.000000
									}
								}
							}
						}
						JOINT newVegas:Left_CapeB
						{
							OFFSET 26.118385 -8.608795 -7.079235
							CHANNELS 3 Xrotation Yrotation Zrotation
							JOINT newVegas:Left_CapeB1
							{
								OFFSET 0.000000 -8.688499 0.000000
								CHANNELS 3 Xrotation Yrotation Zrotation
								End Site
								{
									OFFSET 0.000000 8.688499 0.000000
								}
							}
						}
						JOINT newVegas:Left_CapeA
						{
							OFFSET 5.115639 -8.608795 -10.395809
							CHANNELS 3 Xrotation Yrotation Zrotation
							JOINT newVegas:Left_CapeA1
							{
								OFFSET 0.000000 -8.688499 0.000000
								CHANNELS 3 Xrotation Yrotation Zrotation
								End Site
								{
									OFFSET 0.000000 8.688499 0.000000
								}
							}
						}
					}
				}
				JOINT newVegas:RightShoulder
				{
					OFFSET -15.263000 10.923401 -0.547700
					CHANNELS 3 Xrotation Yrotation Zrotation
					JOINT newVegas:RightArm
					{
						OFFSET -25.438599 -2.830597 -13.032500
						CHANNELS 3 Xrotation Yrotation Zrotation
						JOINT newVegas:RightForeArm
						{
							OFFSET -29.960503 0.000000 0.000000
							CHANNELS 3 Xrotation Yrotation Zrotation
							JOINT newVegas:RightHand
							{
								OFFSET -27.849251 0.000000 0.000000
								CHANNELS 3 Xrotation Yrotation Zrotation
								JOINT newVegas:RightHandThumb1
								{
									OFFSET -4.487587 -3.305161 6.305391
									CHANNELS 3 Xrotation Yrotation Zrotation
									JOINT newVegas:RightHandThumb2
									{
										OFFSET -5.480453 -3.164139 3.164143
										CHANNELS 3 Xrotation Yrotation Zrotation
										JOINT newVegas:RightHandThumb3
										{
											OFFSET -5.159721 -2.978973 2.978967
											CHANNELS 3 Xrotation Yrotation Zrotation
											End Site
											{
												OFFSET -2.494507 5.926697 1.738678
											}
										}
									}
								}
								JOINT newVegas:RightHandIndex1
								{
									OFFSET -18.578728 -0.527832 5.208049
									CHANNELS 3 Xrotation Yrotation Zrotation
									JOINT newVegas:RightHandIndex2
									{
										OFFSET -3.192009 0.000000 0.000000
										CHANNELS 3 Xrotation Yrotation Zrotation
										JOINT newVegas:RightHandIndex3
										{
											OFFSET -3.835129 0.000000 0.000000
											CHANNELS 3 Xrotation Yrotation Zrotation
											End Site
											{
												OFFSET 0.034599 3.816971 0.371180
											}
										}
									}
								}
								JOINT newVegas:RightHandMiddle1
								{
									OFFSET -18.476105 0.000000 0.000000
									CHANNELS 3 Xrotation Yrotation Zrotation
									JOINT newVegas:RightHandMiddle2
									{
										OFFSET -3.324875 0.000000 0.000000
										CHANNELS 3 Xrotation Yrotation Zrotation
										JOINT newVegas:RightHandMiddle3
										{
											OFFSET -4.596550 0.000000 0.000000
											CHANNELS 3 Xrotation Yrotation Zrotation
											End Site
											{
												OFFSET -0.057701 4.578827 0.399218
											}
										}
									}
								}
								JOINT newVegas:RightHandRing1
								{
									OFFSET -17.732719 0.121887 -4.201567
									CHANNELS 3 Xrotation Yrotation Zrotation
									JOINT newVegas:RightHandRing2
									{
										OFFSET -2.733170 0.000000 0.000000
										CHANNELS 3 Xrotation Yrotation Zrotation
										JOINT newVegas:RightHandRing3
										{
											OFFSET -3.178268 0.000000 0.000000
											CHANNELS 3 Xrotation Yrotation Zrotation
											End Site
											{
												OFFSET -0.119102 3.170624 0.185394
											}
										}
									}
								}
								JOINT newVegas:RightHandPinky1
								{
									OFFSET -15.989624 -0.606689 -7.535461
									CHANNELS 3 Xrotation Yrotation Zrotation
									JOINT newVegas:RightHandPinky2
									{
										OFFSET -2.538986 0.000000 0.000000
										CHANNELS 3 Xrotation Yrotation Zrotation
										JOINT newVegas:RightHandPinky3
										{
											OFFSET -2.593102 0.000000 0.000000
											CHANNELS 3 Xrotation Yrotation Zrotation
											End Site
											{
												OFFSET 0.150902 2.584198 0.152708
											}
										}
									}
								}
							}
							JOINT newVegas:Right_CapeC
							{
								OFFSET -15.715958 -8.608795 -6.935905
								CHANNELS 3 Xrotation Yrotation Zrotation
								JOINT newVegas:Right_CapeC1
								{
									OFFSET 0.000000 -8.688499 0.000000
									CHANNELS 3 Xrotation Yrotation Zrotation
									End Site
									{
										OFFSET 0.000000 8.688499 0.000000
									}
								}
							}
							JOINT newVegas:Right_Sleeve
							{
								OFFSET -0.267448 -0.649994 0.577675
								CHANNELS 3 Xrotation Yrotation Zrotation
								End Site
								{
									OFFSET 0.000000 15.991302 0.000000
								}
							}
						}
						JOINT newVegas:Right_CapeA
						{
							OFFSET -5.115540 -8.608795 -10.395824
							CHANNELS 3 Xrotation Yrotation Zrotation
							JOINT newVegas:Right_CapeA1
							{
								OFFSET 0.000000 -8.688499 0.000000
								CHANNELS 3 Xrotation Yrotation Zrotation
								End Site
								{
									OFFSET 0.000000 8.688499 0.000000
								}
							}
						}
						JOINT newVegas:Right_CapeB
						{
							OFFSET -26.118187 -8.608795 -7.079266
							CHANNELS 3 Xrotation Yrotation Zrotation
							JOINT newVegas:Right_CapeB1
							{
								OFFSET 0.000000 -8.688499 0.000000
								CHANNELS 3 Xrotation Yrotation Zrotation
								End Site
								{
									OFFSET 0.000000 8.688499 0.000000
								}
							}
						}
					}
				}
				JOINT newVegas:Left_Collar
				{
					OFFSET 18.625099 8.655502 8.828100
					CHANNELS 3 Xrotation Yrotation Zrotation
					JOINT newVegas:Left_Collar1
					{
						OFFSET 14.783401 10.540405 -1.259500
						CHANNELS 3 Xrotation Yrotation Zrotation
						End Site
						{
							OFFSET 0.000000 18.199875 0.000000
						}
					}
				}
				JOINT newVegas:Collar_Back
				{
					OFFSET 0.000000 15.630707 -20.132601
					CHANNELS 3 Xrotation Yrotation Zrotation
					End Site
					{
						OFFSET 0.000000 22.523010 0.000000
					}
				}
				JOINT newVegas:Left_Peck
				{
					OFFSET 17.239599 -5.132599 25.482599
					CHANNELS 3 Xrotation Yrotation Zrotation
					End Site
					{
						OFFSET 0.000000 22.523010 0.000000
					}
				}
				JOINT newVegas:Right_Peck
				{
					OFFSET -17.239599 -5.132202 25.482599
					CHANNELS 3 Xrotation Yrotation Zrotation
					End Site
					{
						OFFSET 0.000000 22.523010 0.000000
					}
				}
				JOINT newVegas:Right_Collar
				{
					OFFSET -18.625099 8.655792 8.828100
					CHANNELS 3 Xrotation Yrotation Zrotation
					JOINT newVegas:Right_Collar1
					{
						OFFSET -14.783401 10.539993 -1.259500
						CHANNELS 3 Xrotation Yrotation Zrotation
						End Site
						{
							OFFSET 0.000000 18.199631 0.000000
						}
					}
				}
			}
		}
		JOINT newVegas:Belly
		{
			OFFSET 0.000000 -6.540398 9.014299
			CHANNELS 3 Xrotation Yrotation Zrotation
			End Site
			{
				OFFSET 0.000000 11.566666 0.000000
			}
		}
	}
	JOINT newVegas:ElvisFacialAnim_Joint
	{
		OFFSET 1.000000 -95.330101 -8.825800
		CHANNELS 3 Xrotation Yrotation Zrotation
		End Site
		{
			OFFSET 0.000000 35.315800 0.000000
		}
	}
}
MOTION
Frames: 4
Frame Time: 0.033333
0.046572 96.174690 5.259692 -2.755299 0.473807 -0.039765 0.000000 -0.000000 0.000000 -5.477024 2.427111 0.951998 9.823857 -4.046984 -0.054264 -1.634681 0.040787 -0.363773 0.000000 0.000000 -0.000000 0.000000 -0.000000 -0.000000 -3.964078 -7.781441 -1.023131 9.461852 3.630363 -1.807761 -2.798051 -0.149105 2.131195 -0.000000 -0.000000 0.000000 0.000000 -0.000000 0.000000 0.702372 -0.092630 -0.722585 1.401973 -0.202689 -1.087993 1.401826 -0.203739 -1.087973 0.700051 -0.213091 1.220658 0.700052 -0.213091 1.220657 -0.000000 -0.000000 0.000000 0.700054 -0.213092 1.220658 0.700051 -0.213090 1.220657 -0.000000 -0.000000 -0.000000 -0.000000 -0.000000 -0.000000 1.155557 -2.208721 -12.004366 16.269673 -41.665407 -59.745973 -0.000000 -13.834734 0.000011 -20.029852 5.012770 10.735506 -2.433220 9.400861 11.690246 2.454543 25.559166 -1.628880 -0.000000 -0.000002 -0.000003 0.391175 2.291947 -19.368811 0.391191 2.291953 -19.368825 -0.000003 -0.000001 0.000004 0.838710 3.298394 -28.526014 0.840545 3.301788 -28.558076 -0.000000 -0.000001 0.000002 1.452769 4.235174 -37.852338 1.452783 4.235175 -37.852359 -0.000001 -0.000001 0.000000 4.914691 7.753332 -44.911776 2.048422 0.816368 -45.470512 -0.000001 -0.000003 0.000001 -0.000001 0.000000 -0.000000 -0.000001 0.000000 -0.000000 -0.000002 0.000000 -0.000000 -0.000001 -0.000001 0.000000 -0.000001 -0.000001 0.000000 -0.000001 -0.000001 0.000000 -0.000003 -0.000001 -0.000000 0.386136 -5.148396 12.048436 28.320300 52.943993 48.286060 -0.000004 21.015474 0.000024 -30.052624 0.643565 -8.827522 -2.596082 -7.263999 -12.345484 3.435180 -18.582522 -6.249371 0.000000 -0.000001 0.000001 0.117189 -1.273743 10.512485 0.117182 -1.273741 10.512477 0.000001 -0.000002 -0.000001 0.117194 -1.273741 10.512478 0.117184 -1.273739 10.512469 -0.000001 -0.000000 0.000001 0.117200 -1.273742 10.512473 0.117184 -1.273739 10.512486 0.000001 -0.000003 -0.000003 0.117190 -1.273757 10.512488 0.117186 -1.273737 10.512475 0.000000 -0.000000 -0.000002 0.000002 0.000001 -0.000000 0.000000 0.000000 -0.000001 0.000002 0.000000 -0.000000 -0.000003 0.000000 0.000000 -0.000003 0.000000 -0.000000 -0.000003 0.000000 0.000000 -0.000003 -0.000000 -0.000000 0.000000 -0.000000 -0.000000 0.000000 -0.000000 -0.000000 0.000000 -0.000000 -0.000000 0.000000 -0.000000 -0.000000 0.000000 -0.000000 -0.000000 0.000000 -0.000000 -0.000000 0.000000 -0.000000 -0.000000 0.000000 0.000000 0.000000 0.000000 -0.000000 0.000000 
0.047147 96.178543 5.285394 -2.782268 0.444491 -0.042159 -0.000000 0.000000 0.000000 -5.406713 2.459117 0.949127 9.806654 -4.048698 -0.042288 -1.660542 0.040948 -0.367188 -0.000000 -0.000000 -0.000000 0.000000 0.000000 -0.000000 -3.902776 -7.752442 -1.023752 9.426936 3.633778 -1.795289 -2.797194 -0.148485 2.125692 0.000000 -0.000000 -0.000000 -0.000000 0.000000 -0.000000 0.708289 -0.092160 -0.721835 1.418409 -0.189234 -1.093179 1.418272 -0.190292 -1.093161 0.700324 -0.214004 1.227879 0.700330 -0.214004 1.227879 0.000000 -0.000000 -0.000000 0.700390 -0.214005 1.227880 0.700247 -0.214002 1.227878 0.000000 -0.000000 0.000000 0.000000 -0.000000 -0.000000 1.159340 -2.244468 -12.004597 16.240467 -41.600835 -59.731391 -0.000000 -13.886154 0.000016 -20.088925 4.951883 10.578697 -2.433216 9.400861 11.690249 2.454545 25.559162 -1.628879 -0.000002 0.000000 -0.000001 0.391180 2.291947 -19.368811 0.391184 2.291954 -19.368827 -0.000000 -0.000001 0.000001 0.838710 3.298396 -28.526012 0.840546 3.301788 -28.558081 -0.000001 -0.000000 -0.000002 1.452771 4.235174 -37.852338 1.452781 4.235176 -37.852355 -0.000001 -0.000000 -0.000002 4.914692 7.753334 -44.911776 2.048428 0.816369 -45.470516 -0.000002 -0.000008 -0.000001 0.000000 0.000001 -0.000001 0.000000 0.000001 -0.000001 -0.000000 0.000001 -0.000001 0.000001 -0.000001 -0.000000 0.000001 -0.000001 -0.000000 0.000001 -0.000001 -0.000000 -0.000001 -0.000001 -0.000001 0.379374 -5.177178 12.048957 28.407155 53.027089 48.196612 0.000007 21.001727 -0.000016 -30.105937 0.617662 -8.880650 -2.596075 -7.263987 -12.345490 3.435158 -18.582520 -6.249396 -0.000001 -0.000003 -0.000001 0.117191 -1.273732 10.512481 0.117180 -1.273747 10.512455 0.000004 0.000002 -0.000001 0.117194 -1.273728 10.512487 0.117185 -1.273741 10.512453 -0.000000 0.000001 0.000000 0.117191 -1.273722 10.512484 0.117192 -1.273752 10.512448 0.000002 0.000001 -0.000000 0.117191 -1.273724 10.512483 0.117186 -1.273749 10.512467 0.000000 0.000003 -0.000002 0.000004 0.000001 -0.000000 0.000003 0.000001 -0.000002 0.000005 0.000001 -0.000001 0.000001 -0.000002 -0.000002 0.000001 -0.000002 -0.000002 0.000001 -0.000002 -0.000002 0.000002 -0.000002 -0.000002 0.000000 0.000000 -0.000000 0.000000 0.000000 -0.000000 0.000000 0.000000 -0.000000 0.000000 0.000000 -0.000000 0.000000 0.000000 -0.000000 0.000000 0.000000 -0.000000 0.000000 0.000000 -0.000000 0.000000 0.000000 0.000000 -0.000000 0.000000 0.000000 
0.041734 96.180870 5.309162 -2.808219 0.405308 -0.044511 -0.000000 0.000000 0.000000 -5.340580 2.481456 0.953588 9.802371 -4.017189 -0.039237 -1.696425 0.041500 -0.371047 0.000000 -0.000000 -0.000000 0.000000 0.000000 0.000000 -3.857384 -7.731498 -1.016583 9.415167 3.646592 -1.793906 -2.804189 -0.148188 2.120988 0.000000 -0.000000 -0.000000 0.000000 0.000000 -0.000000 0.715704 -0.091264 -0.720013 1.433120 -0.178443 -1.090049 1.432985 -0.179518 -1.090030 0.699783 -0.215858 1.230429 0.699830 -0.215858 1.230429 0.000000 0.000000 0.000000 0.699833 -0.215858 1.230429 0.699837 -0.215857 1.230428 0.000000 0.000000 -0.000000 0.000000 0.000000 -0.000000 1.163033 -2.254619 -12.004638 16.189731 -41.603242 -59.752127 -0.000006 -13.901616 0.000011 -20.173990 4.904797 10.480623 -2.433211 9.400861 11.690247 2.454548 25.559162 -1.628879 0.000001 0.000002 -0.000001 0.391179 2.291946 -19.368810 0.391187 2.291952 -19.368828 -0.000004 0.000000 0.000004 0.838708 3.298396 -28.526014 0.840546 3.301789 -28.558080 0.000002 0.000000 0.000001 1.452771 4.235172 -37.852341 1.452785 4.235174 -37.852355 -0.000001 -0.000000 -0.000004 4.914694 7.753334 -44.911772 2.048425 0.816367 -45.470516 0.000000 -0.000005 0.000000 0.000004 0.000001 -0.000000 0.000004 0.000001 -0.000000 0.000003 0.000001 -0.000000 -0.000003 0.000000 -0.000000 -0.000003 0.000000 0.000000 -0.000003 0.000000 -0.000000 -0.000005 0.000000 -0.000000 0.377511 -5.185991 12.049115 28.449787 53.077168 48.139450 0.000012 20.977297 0.000011 -30.154090 0.588657 -8.919279 -2.596084 -7.263995 -12.345495 3.435174 -18.582527 -6.249375 -0.000000 -0.000004 -0.000001 0.117181 -1.273746 10.512476 0.117192 -1.273736 10.512488 -0.000000 0.000001 0.000000 0.117185 -1.273750 10.512458 0.117192 -1.273726 10.512505 -0.000005 0.000001 0.000000 0.117180 -1.273743 10.512475 0.117194 -1.273741 10.512486 -0.000001 0.000002 0.000000 0.117185 -1.273742 10.512480 0.117187 -1.273735 10.512489 -0.000000 -0.000005 0.000001 0.000003 0.000002 -0.000002 0.000005 0.000001 -0.000001 0.000003 0.000002 -0.000002 0.000001 0.000000 -0.000000 0.000001 0.000000 -0.000000 0.000001 0.000000 -0.000000 0.000001 -0.000000 -0.000000 0.000000 -0.000000 -0.000000 0.000000 -0.000000 -0.000000 0.000000 -0.000000 -0.000000 0.000000 -0.000000 -0.000000 0.000000 -0.000000 -0.000000 0.000000 -0.000000 -0.000000 0.000000 -0.000000 -0.000000 0.000000 0.000000 -0.000000 -0.000000 0.000000 0.000000 
0.038216 96.181221 5.326632 -2.805801 0.370930 -0.046012 0.000000 0.000000 0.000000 -5.307804 2.479392 0.947540 9.794692 -3.949621 -0.027066 -1.723052 0.041439 -0.379422 0.000000 0.000000 0.000000 -0.000000 -0.000000 -0.000000 -3.850597 -7.761127 -1.013249 9.408483 3.704124 -1.798343 -2.806732 -0.147662 2.116198 -0.000000 0.000000 -0.000000 0.000000 0.000000 -0.000000 0.718256 -0.089704 -0.707362 1.439789 -0.180729 -1.067899 1.439648 -0.181797 -1.067877 0.694746 -0.211211 1.216977 0.694748 -0.211211 1.216979 0.000000 -0.000000 0.000000 0.694745 -0.211211 1.216978 0.694745 -0.211210 1.216979 0.000000 0.000000 -0.000000 0.000000 -0.000000 0.000000 1.165592 -2.257178 -12.004649 16.117006 -41.639244 -59.795103 -0.000005 -13.873241 -0.000007 -20.313877 4.824782 10.404780 -2.433213 9.400862 11.690252 2.454543 25.559162 -1.628878 0.000001 0.000001 -0.000003 0.391180 2.291946 -19.368810 0.391184 2.291953 -19.368823 -0.000003 -0.000001 0.000000 0.838716 3.298393 -28.526014 0.840542 3.301787 -28.558073 -0.000001 -0.000000 -0.000001 1.452769 4.235172 -37.852341 1.452786 4.235173 -37.852359 -0.000000 -0.000000 -0.000003 4.914688 7.753332 -44.911776 2.048420 0.816366 -45.470512 -0.000000 -0.000005 -0.000001 -0.000001 -0.000001 0.000001 -0.000001 -0.000001 0.000001 -0.000002 -0.000001 0.000001 -0.000001 0.000000 -0.000001 -0.000001 0.000000 -0.000001 -0.000001 0.000000 -0.000001 -0.000002 0.000000 -0.000001 0.387810 -5.145733 12.048391 28.441960 53.089640 48.090375 -0.000011 20.907267 0.000010 -30.145289 0.629399 -8.924868 -2.596082 -7.263998 -12.345472 3.435184 -18.582527 -6.249381 0.000001 -0.000003 0.000001 0.117183 -1.273752 10.512467 0.117190 -1.273740 10.512485 0.000002 0.000001 -0.000001 0.117186 -1.273746 10.512476 0.117189 -1.273741 10.512477 -0.000002 -0.000001 -0.000001 0.117186 -1.273742 10.512465 0.117192 -1.273739 10.512488 -0.000003 -0.000001 -0.000001 0.117189 -1.273753 10.512475 0.117185 -1.273732 10.512477 0.000000 -0.000002 -0.000001 0.000006 0.000000 -0.000001 0.000004 -0.000001 0.000001 0.000006 0.000000 -0.000001 -0.000001 0.000001 0.000001 -0.000001 0.000001 0.000001 -0.000001 0.000001 0.000001 -0.000001 0.000001 0.000001 0.000000 0.000000 0.000000 0.000000 0.000000 0.000000 0.000000 0.000000 0.000000 0.000000 0.000000 0.000000 0.000000 0.000000 0.000000 0.000000 0.000000 0.000000 0.000000 0.000000 0.000000 0.000000 -0.000000 -0.000000 0.000000 0.000000 0.000000 
